<svg xmlns="http://www.w3.org/2000/svg" xmlns:xlink="http://www.w3.org/1999/xlink" width="53.87" zoomAndPan="magnify" viewBox="0 0 375 374.999991" height="53.87" preserveAspectRatio="xMidYMid meet" version="1.0"><defs><clipPath id="c58e8a6e2f"><path d="M 0 24 L 375 24 L 375 351.421875 L 0 351.421875 Z M 0 24 " clip-rule="nonzero"/></clipPath></defs><g clip-path="url(#c58e8a6e2f)"><path fill="#0c6ac2" d="M 247.109375 351.050781 C 230.753906 351.050781 214.988281 348.882812 200.210938 344.546875 C 198.832031 344.152344 198.042969 343.167969 197.648438 341.984375 C 197.453125 340.605469 197.84375 339.421875 198.832031 338.4375 C 200.40625 337.058594 201.390625 335.085938 201.390625 332.722656 C 201.390625 328.582031 198.042969 325.035156 193.707031 325.035156 L 122.964844 325.035156 C 118.824219 325.035156 115.277344 321.683594 115.277344 317.347656 C 115.277344 313.207031 118.628906 309.660156 122.964844 309.660156 L 145.429688 309.660156 C 149.566406 309.660156 153.113281 306.308594 153.113281 301.972656 C 153.113281 297.832031 149.761719 294.285156 145.429688 294.285156 L 123.554688 294.285156 C 123.554688 294.285156 123.359375 294.285156 123.359375 294.285156 L 97.148438 294.285156 C 93.011719 294.285156 89.464844 290.933594 89.464844 286.597656 C 89.464844 282.457031 92.8125 278.910156 97.148438 278.910156 L 117.839844 278.910156 C 121.976562 278.910156 125.527344 275.558594 125.527344 271.222656 C 125.527344 267.082031 122.175781 263.535156 117.839844 263.535156 L 85.917969 263.535156 C 81.777344 263.535156 78.230469 260.183594 78.230469 255.847656 C 78.230469 251.707031 81.582031 248.160156 85.917969 248.160156 L 145.230469 248.160156 C 149.371094 248.160156 152.917969 244.808594 152.917969 240.472656 C 152.917969 236.332031 149.566406 232.785156 145.230469 232.785156 L 68.378906 232.785156 C 64.242188 232.785156 60.695312 229.433594 60.695312 225.097656 C 60.695312 220.957031 64.042969 217.410156 68.378906 217.410156 L 94.390625 217.410156 C 98.527344 217.410156 102.074219 214.058594 102.074219 209.722656 C 102.074219 205.582031 98.726562 202.035156 94.390625 202.035156 L 67 202.035156 C 62.859375 202.035156 59.3125 198.683594 59.3125 194.347656 C 59.3125 190.207031 62.664062 186.660156 67 186.660156 L 119.417969 186.660156 C 123.554688 186.660156 127.101562 183.308594 127.101562 178.972656 C 127.101562 174.832031 123.753906 171.285156 119.417969 171.285156 L 81.382812 171.285156 C 77.246094 171.285156 73.699219 167.933594 73.699219 163.597656 C 73.699219 159.457031 77.050781 155.910156 81.382812 155.910156 L 95.96875 155.910156 C 100.105469 155.910156 103.652344 152.558594 103.652344 148.222656 C 103.652344 144.082031 100.300781 140.535156 95.96875 140.535156 L 66.015625 140.535156 C 61.875 140.535156 58.328125 137.183594 58.328125 132.847656 C 58.328125 128.707031 61.679688 125.160156 66.015625 125.160156 L 148.582031 125.160156 C 152.71875 125.160156 156.265625 121.808594 156.265625 117.472656 C 156.265625 113.726562 153.507812 110.574219 149.960938 109.984375 L 126.511719 109.984375 C 126.117188 109.984375 125.722656 109.984375 125.132812 109.785156 L 120.203125 109.785156 C 119.8125 109.785156 119.417969 109.984375 118.824219 109.984375 L 55.570312 109.984375 C 51.433594 109.984375 47.886719 106.632812 47.886719 102.296875 C 47.886719 98.15625 51.234375 94.609375 55.570312 94.609375 L 118.824219 94.609375 C 119.417969 94.609375 120.007812 94.609375 120.597656 94.804688 L 124.539062 94.804688 C 125.132812 94.609375 125.722656 94.609375 126.3125 94.609375 L 130.058594 94.609375 C 133.40625 93.820312 135.773438 90.863281 135.773438 87.117188 C 135.773438 83.371094 133.011719 80.21875 129.464844 79.628906 L 120.796875 79.628906 C 116.65625 79.628906 113.109375 76.277344 113.109375 71.941406 C 113.109375 67.800781 116.460938 64.253906 120.796875 64.253906 L 180.503906 64.253906 C 184.644531 64.253906 188.191406 60.902344 188.191406 56.566406 C 188.191406 52.820312 185.429688 49.664062 181.882812 49.074219 L 143.65625 49.074219 C 139.515625 49.074219 135.96875 45.722656 135.96875 41.386719 C 135.96875 37.246094 139.320312 33.699219 143.65625 33.699219 L 191.34375 33.699219 C 209.273438 27.195312 228.785156 24.042969 249.867188 24.042969 C 264.449219 24.042969 277.851562 25.222656 290.066406 27.589844 C 302.089844 29.953125 313.125 33.304688 322.976562 37.445312 C 332.828125 41.585938 341.894531 46.710938 350.367188 52.621094 C 357.855469 57.945312 364.753906 63.660156 371.257812 69.96875 C 372.636719 71.347656 372.636719 73.515625 371.453125 74.894531 L 332.042969 120.234375 C 331.449219 121.019531 330.660156 121.414062 329.675781 121.414062 C 328.691406 121.414062 327.902344 121.21875 327.113281 120.625 C 315.6875 110.769531 304.058594 102.886719 292.433594 96.972656 C 279.820312 90.664062 265.4375 87.511719 249.671875 87.511719 C 236.46875 87.511719 224.25 90.074219 213.214844 95.199219 C 201.984375 100.324219 192.328125 107.222656 184.25 116.289062 C 176.167969 125.359375 169.863281 135.609375 165.332031 147.433594 C 160.796875 159.261719 158.632812 171.875 158.632812 185.28125 L 158.632812 186.265625 C 158.632812 199.667969 160.796875 212.480469 165.332031 224.308594 C 169.863281 236.332031 175.972656 246.78125 183.855469 255.648438 C 191.738281 264.71875 201.390625 271.8125 212.625 276.9375 C 223.855469 282.261719 236.074219 284.824219 249.671875 284.824219 C 267.605469 284.824219 282.777344 281.472656 295.191406 274.964844 C 306.816406 268.855469 318.246094 260.578125 329.675781 250.328125 C 331.054688 248.949219 333.222656 249.144531 334.601562 250.523438 L 373.621094 289.949219 C 375 291.328125 375 293.496094 373.621094 294.875 C 366.328125 302.5625 358.644531 309.460938 350.960938 315.570312 C 342.289062 322.472656 332.828125 328.382812 322.582031 333.3125 C 312.335938 338.242188 300.90625 341.984375 288.6875 344.546875 C 276.078125 349.871094 262.285156 351.050781 247.109375 351.050781 Z M 13.792969 172.863281 L 16.554688 172.863281 C 20.691406 172.863281 24.238281 176.210938 24.238281 180.550781 C 24.238281 184.6875 20.886719 188.238281 16.554688 188.238281 L 13.792969 188.238281 C 9.65625 188.238281 6.109375 184.886719 6.109375 180.550781 C 6.304688 176.210938 9.65625 172.863281 13.792969 172.863281 Z M 38.03125 172.863281 L 49.265625 172.863281 C 53.402344 172.863281 56.949219 176.210938 56.949219 180.550781 C 56.949219 184.6875 53.597656 188.238281 49.265625 188.238281 L 38.03125 188.238281 C 33.894531 188.238281 30.347656 184.886719 30.347656 180.550781 C 30.347656 176.210938 33.695312 172.863281 38.03125 172.863281 Z M 40.199219 66.421875 L 50.050781 66.421875 C 54.191406 66.421875 57.738281 69.769531 57.738281 74.109375 C 57.738281 78.246094 54.386719 81.796875 50.050781 81.796875 L 40.199219 81.796875 C 36.0625 81.796875 32.515625 78.445312 32.515625 74.109375 C 32.515625 69.96875 36.0625 66.421875 40.199219 66.421875 Z M 70.546875 66.421875 L 99.316406 66.421875 C 103.453125 66.421875 107.003906 69.769531 107.003906 74.109375 C 107.003906 78.246094 103.652344 81.796875 99.316406 81.796875 L 70.546875 81.796875 C 66.410156 81.796875 62.859375 78.445312 62.859375 74.109375 C 62.859375 69.96875 66.210938 66.421875 70.546875 66.421875 Z M 85.71875 310.054688 L 94.390625 310.054688 C 98.527344 310.054688 102.074219 313.402344 102.074219 317.742188 C 102.074219 321.878906 98.726562 325.429688 94.390625 325.429688 L 85.71875 325.429688 C 81.582031 325.429688 78.035156 322.078125 78.035156 317.742188 C 78.035156 313.402344 81.582031 310.054688 85.71875 310.054688 Z M 25.222656 218.59375 L 43.945312 218.59375 C 48.082031 218.59375 51.628906 221.941406 51.628906 226.28125 C 51.628906 230.417969 48.277344 233.96875 43.945312 233.96875 L 25.222656 233.96875 C 21.085938 233.96875 17.539062 230.617188 17.539062 226.28125 C 17.539062 221.941406 21.085938 218.59375 25.222656 218.59375 Z M 113.308594 36.066406 L 124.539062 36.066406 C 128.679688 36.066406 132.226562 39.414062 132.226562 43.753906 C 132.226562 47.890625 128.875 51.441406 124.539062 51.441406 L 113.308594 51.441406 C 109.167969 51.441406 105.621094 48.089844 105.621094 43.753906 C 105.621094 39.613281 109.167969 36.066406 113.308594 36.066406 Z M 7.683594 126.933594 L 37.242188 126.933594 C 41.382812 126.933594 44.929688 130.285156 44.929688 134.621094 C 44.929688 138.761719 41.578125 142.308594 37.242188 142.308594 L 7.683594 142.308594 C 3.351562 142.308594 0 138.761719 0 134.621094 C 0 130.484375 3.351562 126.933594 7.683594 126.933594 Z M 30.742188 248.949219 L 40.59375 248.949219 C 44.730469 248.949219 48.277344 252.296875 48.277344 256.636719 C 48.277344 260.773438 44.929688 264.324219 40.59375 264.324219 L 30.742188 264.324219 C 26.601562 264.324219 23.054688 260.972656 23.054688 256.636719 C 23.054688 252.496094 26.40625 248.949219 30.742188 248.949219 Z M 30.742188 248.949219 " fill-opacity="1" fill-rule="evenodd"/></g></svg>